<?xml version="1.0" encoding="utf-8"?>
<!-- Generator: Adobe Illustrator 24.0.1, SVG Export Plug-In . SVG Version: 6.00 Build 0)  -->
<svg version="1.1" id="chili_2_" xmlns="http://www.w3.org/2000/svg" xmlns:xlink="http://www.w3.org/1999/xlink" x="0px" y="0px"
	 viewBox="0 0 64 64" style="enable-background:new 0 0 64 64;" xml:space="preserve">
<style type="text/css">
	.st0{fill:#0D0D0D;}
</style>
<g>
	<g id="Group_1456">
		<g id="Group_1455">
			<path id="Path_909" class="st0" d="M62.7,6.9c0.7,0,1.2-0.6,1.2-1.2V1.2C64,0.6,63.4,0,62.7,0c-6.8,0-11.4,4.5-14.3,8.3
				c-4.4-1.6-9.2-0.2-12.1,3.4L34.5,14c0,0,0,0,0,0c-0.9,1.2-1.7,2.3-2.5,3.5c-0.8-1.2-1.7-2.3-2.5-3.5c0,0,0,0,0,0l-1.8-2.3
				c-2.9-3.7-7.7-5-12.1-3.4C12.6,4.5,8.1,0,1.3,0C0.6,0,0,0.6,0,1.2c0,0,0,0,0,0v4.4c0,0.7,0.6,1.2,1.2,1.2c3,0,5.8,1.9,8.9,5.8
				c-1.9,3.1-2.1,7-0.4,10.3l2.4,4.7c0.2,0.4,2.4,5.2,6.8,11.2c-4.1,6.6-9.4,13.8-18.5,22.9c-0.5,0.5-0.5,1.3,0,1.8
				C0.6,63.9,0.9,64,1.3,64c7.8,0,15.4-1.9,22.4-5.7c2.9-1.6,5.7-3.4,8.3-5.5C41.3,60.2,51.7,64,62.7,64c0.7,0,1.2-0.6,1.2-1.2
				c0-0.3-0.1-0.6-0.4-0.9c-2.3-2.3-4.5-4.6-6.5-6.8c-0.5-0.5-1.2-0.6-1.8-0.1c-0.5,0.5-0.6,1.2-0.1,1.8c1.4,1.5,2.8,3.1,4.4,4.7
				c-9.2-0.6-17.8-4.1-25.7-10.2c1.9-1.7,3.8-3.5,5.5-5.3c1.5-1.6,2.8-3.2,4-4.7c1.6,2.6,3.3,4.9,5,7.3c0.4,0.6,1.2,0.7,1.7,0.3
				c0.6-0.4,0.7-1.2,0.3-1.7l0,0c-1.9-2.5-3.6-5.1-5.4-7.9c4.4-6,6.6-10.8,6.8-11.2l2.4-4.7c1.6-3.3,1.5-7.2-0.4-10.3
				C56.9,8.8,59.8,6.9,62.7,6.9z M2.5,4.5v-2c4.9,0.5,8.4,3.9,10.8,6.9c-0.5,0.4-1.1,0.8-1.5,1.3C9.6,8,6.5,5,2.5,4.5z M12.3,22.7
				L12,21.9c-1.4-2.7-1.1-6,0.8-8.5c0,0,0,0,0,0c0.6-0.8,1.3-1.4,2.1-2c0.3-0.2,0.6-0.3,0.9-0.5c0,0,0,0,0.1,0
				c3.2-1.5,7-0.9,9.4,1.7c-3.3,0.2-6.1,2.8-6.4,6.1h-0.4C15.8,18.8,13.5,20.3,12.3,22.7z M14.2,26.4C14.2,26.4,14.2,26.4,14.2,26.4
				l0-0.9c0-2.3,1.9-4.2,4.2-4.2H20c0.7,0,1.2-0.6,1.2-1.2l0,0v-0.7c0-2.3,1.9-4.2,4.2-4.2h1.6l0.3,0.4c1,1.4,2,2.8,3,4.2
				c-2.6,3.9-4.7,7.6-6.8,11.2c-1.1,1.9-2.2,3.8-3.4,5.8C16.4,31.1,14.2,26.4,14.2,26.4z M49.7,26.7C49.7,26.7,49.6,26.7,49.7,26.7
				c-0.1,0.1-4,8.8-12,17.4c-6.9,7.4-18.1,16.2-33.3,17.2c8.2-8.5,13.2-15.4,17.1-21.8c0,0,0-0.1,0.1-0.1c1.6-2.5,3-5,4.4-7.4
				c3-5.2,6.1-10.5,10.7-16.6l0.3-0.4h1.6c2.3,0,4.2,1.9,4.2,4.2v0.7c0,0.7,0.6,1.2,1.2,1.2l0,0h1.6c2.3,0,4.2,1.9,4.2,4.2v0.8
				c0,0,0,0,0,0.1L49.7,26.7z M52,21.9l-0.4,0.7c-1.1-2.4-3.5-3.9-6.1-3.9h-0.4c-0.3-3.3-3-6-6.4-6.1c2.4-2.6,6.2-3.2,9.4-1.7
				c0,0,0,0,0.1,0c0.3,0.1,0.6,0.3,0.9,0.5c0.8,0.5,1.5,1.2,2.1,2c0,0,0,0,0,0C53.1,15.9,53.4,19.2,52,21.9z M52.2,10.8
				c-0.5-0.5-1-0.9-1.5-1.3c2.4-3,5.9-6.4,10.8-6.9v2C57.5,5,54.4,8,52.2,10.8L52.2,10.8z"/>
		</g>
	</g>
	<g id="Group_1458" transform="translate(540.295 530.499)">
		<g id="Group_1457">
			<path id="Path_910" class="st0" d="M-486.4-479.3L-486.4-479.3c-0.5-0.6-1.3-0.7-1.8-0.2c-0.5,0.4-0.6,1.2-0.2,1.8c0,0,0,0,0,0
				l0,0.1c0.4,0.5,1.2,0.6,1.8,0.2C-486.1-478-486-478.8-486.4-479.3L-486.4-479.3z"/>
		</g>
	</g>
	<g id="Group_1460" transform="translate(247.198 385.133)">
		<g id="Group_1459">
			<path id="Path_911" class="st0" d="M-208.4-348.1c-0.5-0.4-1.3-0.3-1.8,0.2c-3.9,4.9-8.2,8.9-12.8,12c-0.6,0.4-0.7,1.2-0.3,1.7
				s1.2,0.7,1.7,0.3l0,0c4.8-3.2,9.3-7.4,13.4-12.5C-207.8-346.9-207.9-347.6-208.4-348.1C-208.4-348.1-208.4-348.1-208.4-348.1z"/>
		</g>
	</g>
	<g id="Group_1462" transform="translate(204.31 538.946)">
		<g id="Group_1461">
			<path id="Path_912" class="st0" d="M-182.4-486.8c-0.3-0.6-1.1-0.8-1.7-0.5c0,0,0,0,0,0l-0.1,0c-0.6,0.3-0.8,1.1-0.5,1.7
				s1.1,0.8,1.7,0.5l0.1-0.1C-182.3-485.5-182-486.2-182.4-486.8C-182.4-486.8-182.4-486.8-182.4-486.8z"/>
		</g>
	</g>
</g>
</svg>
