<?xml version="1.0" standalone="no"?>
<!DOCTYPE svg PUBLIC "-//W3C//DTD SVG 20010904//EN"
 "http://www.w3.org/TR/2001/REC-SVG-20010904/DTD/svg10.dtd">
<svg version="1.0" xmlns="http://www.w3.org/2000/svg"
 width="700.000000pt" height="700.000000pt" viewBox="0 0 700.000000 700.000000"
 preserveAspectRatio="xMidYMid meet">
<metadata>
Created by potrace 1.11, written by Peter Selinger 2001-2013
</metadata>
<g transform="translate(0.000000,700.000000) scale(0.100000,-0.100000)"
fill="#000000" stroke="none">
<path d="M84 6986 c-17 -7 -42 -29 -57 -47 l-26 -33 -1 -276 c0 -257 1 -277
19 -307 28 -45 71 -64 159 -70 145 -10 303 -66 437 -155 127 -84 291 -238 428
-401 31 -37 57 -71 57 -75 0 -4 -15 -37 -34 -72 -117 -222 -155 -468 -112
-740 15 -96 55 -210 120 -339 133 -265 386 -758 429 -836 121 -219 335 -557
500 -790 31 -44 57 -86 57 -93 0 -30 -405 -626 -624 -917 -81 -108 -380 -484
-440 -553 -13 -15 -72 -83 -132 -152 -59 -69 -128 -148 -153 -175 -201 -221
-351 -380 -562 -595 -67 -69 -127 -138 -134 -155 -22 -51 -5 -115 46 -175 21
-25 23 -25 173 -25 139 0 404 13 416 20 3 1 37 6 75 9 87 9 122 13 160 20 17
3 48 8 70 11 22 3 51 8 65 11 14 2 39 7 55 9 143 24 419 93 590 147 481 151
932 369 1400 677 116 76 399 284 409 300 13 20 31 12 111 -50 194 -149 497
-353 657 -442 26 -15 83 -46 125 -70 76 -43 312 -160 424 -210 357 -160 823
-300 1204 -363 17 -3 55 -9 85 -14 100 -17 248 -34 390 -45 110 -9 385 -16
414 -11 75 14 128 115 94 179 -7 14 -92 106 -188 204 -154 158 -280 291 -511
537 -35 37 -76 74 -91 82 -75 39 -176 -12 -194 -97 -13 -67 0 -88 185 -288
132 -144 152 -164 243 -258 77 -79 84 -94 43 -87 -11 2 -49 6 -85 9 -96 8
-246 27 -325 40 -214 38 -271 50 -441 94 -517 135 -1080 393 -1569 721 -87 58
-321 226 -345 247 -3 3 6 14 20 25 108 86 572 542 670 657 25 29 58 67 74 84
15 18 78 93 138 167 61 74 116 141 122 148 10 10 29 -13 91 -110 67 -104 163
-242 372 -540 70 -101 125 -169 145 -179 30 -16 93 -13 125 6 45 27 66 63 67
114 1 44 -5 54 -98 181 -99 134 -379 547 -468 690 l-47 74 24 32 c111 145 342
500 462 709 119 206 111 192 278 521 297 583 291 569 324 701 31 122 32 130
36 268 5 206 -31 378 -116 547 -22 43 -39 82 -39 87 0 19 185 236 283 332 223
219 438 330 665 343 86 6 117 22 144 77 16 30 18 67 18 310 0 271 0 277 -23
310 -33 50 -72 60 -202 54 -114 -5 -135 -8 -220 -26 -27 -6 -60 -13 -73 -15
-53 -11 -194 -59 -273 -95 -273 -123 -537 -328 -764 -594 -33 -38 -68 -78 -78
-89 -9 -11 -27 -34 -39 -51 l-21 -32 -81 24 c-283 82 -583 54 -850 -79 -187
-93 -293 -187 -469 -413 -56 -71 -104 -132 -107 -135 -10 -9 -215 -292 -251
-347 -19 -29 -36 -53 -39 -53 -3 0 -21 24 -41 53 -99 145 -273 382 -382 517
-7 8 -28 35 -46 60 -55 71 -180 188 -256 240 -284 192 -604 249 -943 170 -46
-11 -92 -25 -102 -30 -16 -8 -23 -6 -39 12 -265 318 -446 487 -675 633 -140
88 -363 183 -492 209 -11 3 -39 9 -64 15 -118 26 -333 36 -376 17z m424 -307
c185 -52 387 -162 558 -305 123 -102 384 -376 384 -402 0 -4 -16 -18 -35 -31
-20 -13 -56 -43 -80 -66 l-44 -43 -58 67 c-95 109 -253 263 -344 333 -197 153
-433 259 -604 272 -13 1 -15 209 -3 217 11 7 129 -15 226 -42z m6217 -71 c-3
-119 -3 -119 -12 -116 -21 6 -121 -16 -204 -43 -238 -79 -462 -241 -689 -499
-36 -40 -76 -86 -90 -102 l-25 -28 -50 48 c-28 26 -63 57 -78 69 -20 15 -26
26 -20 36 26 47 259 291 353 372 204 175 462 306 689 350 114 21 116 22 122
19 3 -2 5 -50 4 -106z m-4464 -722 c77 -10 167 -39 248 -78 92 -44 138 -74
211 -141 l49 -45 -57 -6 c-80 -9 -210 -56 -289 -105 -182 -111 -311 -293 -346
-490 l-12 -65 -50 -2 c-260 -14 -506 -158 -629 -368 l-39 -66 -34 77 c-83 190
-109 341 -88 508 38 312 267 610 550 718 79 30 176 57 230 63 28 4 51 7 52 8
5 4 167 -2 204 -8z m2750 -1 c87 -13 287 -83 331 -115 15 -11 30 -20 34 -20 3
0 29 -19 58 -42 215 -179 347 -446 347 -705 0 -144 -27 -259 -93 -391 l-41
-83 -39 66 c-128 213 -353 346 -608 359 -35 1 -65 7 -66 12 -21 102 -31 140
-52 194 -92 238 -310 414 -563 453 l-82 13 44 42 c116 114 304 201 474 218 33
4 62 8 64 10 4 4 145 -4 192 -11z m-639 -552 c138 -50 249 -168 291 -308 8
-27 15 -90 16 -139 4 -167 37 -193 243 -195 99 -1 149 -6 196 -20 157 -48 278
-178 316 -340 12 -52 14 -194 4 -241 -7 -29 -166 -326 -265 -495 -137 -232
-263 -427 -396 -613 -27 -37 -56 -78 -65 -91 -54 -75 -303 -394 -322 -411 -3
-3 -30 -34 -60 -70 -30 -36 -59 -70 -65 -76 -5 -6 -44 -49 -85 -95 -170 -190
-419 -431 -676 -654 -39 -34 -71 -60 -179 -143 -66 -51 -128 -100 -138 -108
-11 -9 -83 -60 -160 -114 -375 -260 -820 -495 -1207 -637 -410 -150 -847 -249
-1235 -278 -49 -4 -94 -10 -100 -13 -5 -2 15 21 45 53 30 32 64 68 75 80 20
22 231 248 250 269 222 238 616 716 858 1041 69 94 135 181 145 195 43 57 334
495 413 620 46 74 86 137 89 140 11 9 225 361 304 500 20 36 41 72 46 80 5 8
32 53 59 100 424 731 543 927 766 1265 133 201 295 433 460 658 l50 68 135 -4
c103 -3 148 -9 192 -24z m-1405 -16 c11 -12 64 -85 118 -162 55 -77 103 -144
107 -150 29 -37 118 -164 118 -169 0 -3 -28 -50 -63 -104 -35 -53 -94 -146
-132 -207 -37 -60 -78 -126 -90 -145 -52 -80 -599 -1012 -754 -1283 -13 -23
-35 -59 -48 -81 l-25 -38 -25 36 c-31 46 -233 377 -233 382 0 2 -17 32 -38 66
-21 35 -67 115 -102 178 -34 63 -75 138 -90 165 -15 28 -56 106 -91 175 -61
119 -64 129 -65 200 -2 179 71 323 208 412 95 62 128 70 298 75 105 3 165 10
186 19 47 22 71 76 72 159 1 79 5 110 26 178 32 106 131 217 240 268 78 37
122 45 257 46 98 2 108 0 126 -20z"/>
<path d="M4114 2968 c-35 -9 -75 -48 -197 -196 -154 -186 -408 -452 -577 -606
-36 -32 -81 -73 -100 -90 -132 -120 -362 -300 -540 -423 -85 -59 -110 -93
-110 -150 0 -71 85 -139 157 -127 32 6 96 46 228 143 94 69 316 241 325 252 3
3 39 34 80 70 153 130 429 400 587 574 113 124 296 342 311 372 26 48 3 139
-42 168 -28 18 -83 24 -122 13z"/>
<path d="M2220 1354 c-63 -19 -85 -53 -85 -128 1 -54 3 -61 38 -92 72 -66 182
-41 230 53 38 73 -24 169 -116 178 -12 1 -42 -4 -67 -11z"/>
<path d="M5727 1441 c-65 -33 -96 -126 -63 -189 8 -16 13 -31 11 -33 -2 -3 12
-15 31 -28 39 -27 95 -31 142 -12 36 15 72 83 72 137 0 99 -107 168 -193 125z"/>
</g>
</svg>
